<svg width="222" height="40" viewBox="0 0 222 40" fill="none" xmlns="http://www.w3.org/2000/svg">
<path d="M0.792329 32.5558C-1.39987 35.4821 1.3785 37.9386 4.00641 36.352L24.9395 23.8016L50.8295 38.2491C51.7304 38.722 52.5109 39 53.2623 39C54.3012 39 55.2513 38.5064 56.1519 37.303L77.2876 9.45869C79.2151 6.94196 76.9268 3.90634 74.0514 5.60432L53.1813 18.1985L27.2351 3.73241C26.3724 3.22712 25.5699 3 24.8565 3C23.7884 3 22.8696 3.49381 21.9779 4.67834L0.792329 32.5558Z" fill="#1B5E85"/>
<path d="M92.452 22.724C92.452 20.26 92.936 18.0747 93.904 16.168C94.9013 14.2613 96.236 12.7947 97.908 11.768C99.6093 10.7413 101.501 10.228 103.584 10.228C105.403 10.228 106.987 10.5947 108.336 11.328C109.715 12.0613 110.815 12.9853 111.636 14.1V10.624H117.84V35H111.636V31.436C110.844 32.58 109.744 33.5333 108.336 34.296C106.957 35.0293 105.359 35.396 103.54 35.396C101.487 35.396 99.6093 34.868 97.908 33.812C96.236 32.756 94.9013 31.2747 93.904 29.368C92.936 27.432 92.452 25.2173 92.452 22.724ZM111.636 22.812C111.636 21.316 111.343 20.04 110.756 18.984C110.169 17.8987 109.377 17.0773 108.38 16.52C107.383 15.9333 106.312 15.64 105.168 15.64C104.024 15.64 102.968 15.9187 102 16.476C101.032 17.0333 100.24 17.8547 99.624 18.94C99.0373 19.996 98.744 21.2573 98.744 22.724C98.744 24.1907 99.0373 25.4813 99.624 26.596C100.24 27.6813 101.032 28.5173 102 29.104C102.997 29.6907 104.053 29.984 105.168 29.984C106.312 29.984 107.383 29.7053 108.38 29.148C109.377 28.5613 110.169 27.74 110.756 26.684C111.343 25.5987 111.636 24.308 111.636 22.812ZM122.646 22.812C122.646 20.2893 123.16 18.0893 124.186 16.212C125.213 14.3053 126.636 12.8387 128.454 11.812C130.273 10.756 132.356 10.228 134.702 10.228C137.724 10.228 140.217 10.9907 142.182 12.516C144.177 14.012 145.512 16.124 146.186 18.852H139.542C139.19 17.796 138.589 16.9747 137.738 16.388C136.917 15.772 135.89 15.464 134.658 15.464C132.898 15.464 131.505 16.1093 130.478 17.4C129.452 18.6613 128.938 20.4653 128.938 22.812C128.938 25.1293 129.452 26.9333 130.478 28.224C131.505 29.4853 132.898 30.116 134.658 30.116C137.152 30.116 138.78 29.0013 139.542 26.772H146.186C145.512 29.412 144.177 31.5093 142.182 33.064C140.188 34.6187 137.694 35.396 134.702 35.396C132.356 35.396 130.273 34.8827 128.454 33.856C126.636 32.8 125.213 31.3333 124.186 29.456C123.16 27.5493 122.646 25.3347 122.646 22.812ZM181.345 10.272C184.337 10.272 186.742 11.196 188.561 13.044C190.409 14.8627 191.333 17.4147 191.333 20.7V35H185.173V21.536C185.173 19.6293 184.689 18.1773 183.721 17.18C182.753 16.1533 181.433 15.64 179.761 15.64C178.089 15.64 176.754 16.1533 175.757 17.18C174.789 18.1773 174.305 19.6293 174.305 21.536V35H168.145V21.536C168.145 19.6293 167.661 18.1773 166.693 17.18C165.725 16.1533 164.405 15.64 162.733 15.64C161.032 15.64 159.682 16.1533 158.685 17.18C157.717 18.1773 157.233 19.6293 157.233 21.536V35H151.073V10.624H157.233V13.572C158.025 12.5453 159.037 11.7387 160.269 11.152C161.53 10.5653 162.909 10.272 164.405 10.272C166.312 10.272 168.013 10.6827 169.509 11.504C171.005 12.296 172.164 13.44 172.985 14.936C173.777 13.528 174.921 12.3987 176.417 11.548C177.942 10.6973 179.585 10.272 181.345 10.272ZM220.213 22.284C220.213 23.164 220.154 23.956 220.037 24.66H202.217C202.363 26.42 202.979 27.7987 204.065 28.796C205.15 29.7933 206.485 30.292 208.069 30.292C210.357 30.292 211.985 29.3093 212.953 27.344H219.597C218.893 29.6907 217.543 31.6267 215.549 33.152C213.554 34.648 211.105 35.396 208.201 35.396C205.854 35.396 203.742 34.8827 201.865 33.856C200.017 32.8 198.565 31.3187 197.509 29.412C196.482 27.5053 195.969 25.3053 195.969 22.812C195.969 20.2893 196.482 18.0747 197.509 16.168C198.535 14.2613 199.973 12.7947 201.821 11.768C203.669 10.7413 205.795 10.228 208.201 10.228C210.518 10.228 212.586 10.7267 214.405 11.724C216.253 12.7213 217.675 14.144 218.673 15.992C219.699 17.8107 220.213 19.908 220.213 22.284ZM213.833 20.524C213.803 18.94 213.231 17.6787 212.117 16.74C211.002 15.772 209.638 15.288 208.025 15.288C206.499 15.288 205.209 15.7573 204.153 16.696C203.126 17.6053 202.495 18.8813 202.261 20.524H213.833Z" fill="#111111"/>
</svg>
